<svg id="Шар_1" data-name="Шар 1" xmlns="http://www.w3.org/2000/svg" width="1080" height="1080" viewBox="0 0 1080 1080">
  <defs>
    <style>
      .cls-1 {
        fill: #15481f;
      }

      .cls-2 {
        fill: #ffd506;
      }

      .cls-3 {
        fill: #dc6900;
      }

      .cls-4 {
        fill: #fff;
      }
    </style>
  </defs>
  <g id="_1" data-name="1">
    <g>
      <g>
        <g>
          <path class="cls-1" d="M102.6703,457.26481a33.21675,33.21675,0,0,0-7.03938-10.424,31.65781,31.65781,0,0,0-10.37853-6.99339A32.13825,32.13825,0,0,0,72.48214,437.274h-21.84a11.08165,11.08165,0,0,1-4.2417-.81083,11.52321,11.52321,0,0,1-3.47465-2.34655,10.18608,10.18608,0,0,1-2.30139-3.47465,11.53978,11.53978,0,0,1-.85737-4.28769,11.16732,11.16732,0,0,1,.85737-4.28549,10.60521,10.60521,0,0,1,2.30139-3.47466,11.39721,11.39721,0,0,1,3.47465-2.30248,11.083,11.083,0,0,1,4.2417-.813H100.73V393.63913H50.64215a31.509,31.509,0,0,0-12.67991,2.5735A33.28611,33.28611,0,0,0,20.54405,413.63a32.76818,32.76818,0,0,0,0,25.45071,33.18476,33.18476,0,0,0,17.41819,17.46143,31.50919,31.50919,0,0,0,12.67991,2.57349h21.84A10.87277,10.87277,0,0,1,80.1985,462.273a10.88373,10.88373,0,0,1,0,15.43215,10.39617,10.39617,0,0,1-7.71636,3.15958H24.01871v21.83945H72.48214a32.13655,32.13655,0,0,0,12.77025-2.57129,34.04766,34.04766,0,0,0,10.37853-7.03966,33.521,33.521,0,0,0,7.03938-10.3777,33.305,33.305,0,0,0,0-25.45071Z"/>
          <path class="cls-1" d="M172.52287,442.0574V421.39013H141.02594V388.8557H120.31405v32.53443h-10.1078V442.0574h10.1078v24.186a34.75546,34.75546,0,0,0,2.88774,14.16964,36.732,36.732,0,0,0,19.40366,19.44883,35.644,35.644,0,0,0,14.16882,2.8423h15.7486V481.99283h-15.7486a15.7255,15.7255,0,0,1-6.182-1.21845,16.88811,16.88811,0,0,1-5.00873-3.38432,16.4879,16.4879,0,0,1-3.33915-5.00818,15.36414,15.36414,0,0,1-1.21844-6.13848v-24.186Z"/>
          <path class="cls-1" d="M220.6704,421.39013a36.2172,36.2172,0,0,0-13.26655,2.48315,35.30857,35.30857,0,0,0-11.37141,7.03966l-6.8587-9.65722h-5.009v81.44845h20.75733V457.80683a15.67212,15.67212,0,0,1,1.21817-6.13629,15.61983,15.61983,0,0,1,8.34816-8.3947,15.76482,15.76482,0,0,1,6.182-1.21844h18.32045V421.39013Z"/>
          <path class="cls-1" d="M299.95379,476.35229a19.678,19.678,0,0,1-4.42236,3.78974,19.98686,19.98686,0,0,1-5.27947,2.39282,19.6529,19.6529,0,0,1-5.8661.85709,22.57473,22.57473,0,0,1-2.43661-.1344,9.40253,9.40253,0,0,1-2.43689-.498l38.94228-46.92881a41.49454,41.49454,0,0,0-6.67831-7.401,43.00613,43.00613,0,0,0-8.16748-5.59427,41.60475,41.60475,0,0,0-9.25042-3.52092,43.38233,43.38233,0,0,0-9.97257-1.17218,42.05032,42.05032,0,0,0-16.15457,3.11331,39.90838,39.90838,0,0,0-13.22138,8.70978,40.62376,40.62376,0,0,0-8.93452,13.62762,45.66605,45.66605,0,0,0-3.29426,17.6421,44.26059,44.26059,0,0,0,3.29426,17.32922,41.851,41.851,0,0,0,8.93452,13.58135,40.41546,40.41546,0,0,0,13.22138,8.89045,41.30435,41.30435,0,0,0,16.15457,3.20365,40.487,40.487,0,0,0,9.9274-1.21844,41.0003,41.0003,0,0,0,9.20525-3.4306,41.8682,41.8682,0,0,0,14.8009-12.949l-15.20686-15.29775A19.23642,19.23642,0,0,1,299.95379,476.35229Zm-33.97871-4.28769a11.905,11.905,0,0,1-.9926-2.43688c-.22557-.94744-.45141-1.89487-.63181-2.88637a21.07571,21.07571,0,0,1-.36107-2.88857c-.09006-.99371-.13523-1.8508-.13523-2.61756a25.48644,25.48644,0,0,1,1.57924-9.15926,21.41852,21.41852,0,0,1,4.3772-6.94932,19.18932,19.18932,0,0,1,6.5428-4.46836,20.86524,20.86524,0,0,1,8.03225-1.53352c1.03777,0,1.98548.04407,2.93319.13661a10.75426,10.75426,0,0,1,2.84258.67642Z"/>
          <path class="cls-1" d="M402.115,421.39013l-8.032,9.65721a62.57112,62.57112,0,0,0-6.22717-5.09852,44.71042,44.71042,0,0,0-6.949-4.107,40.76736,40.76736,0,0,0-7.536-2.752,32.67,32.67,0,0,0-7.80641-.94744,41.887,41.887,0,0,0-16.15457,3.11331,41.04777,41.04777,0,0,0-13.26655,8.88825,41.81047,41.81047,0,0,0-8.93452,13.62983,45.90507,45.90507,0,0,0-3.24882,17.46142,47.87841,47.87841,0,0,0,3.24882,18.18632,39.40207,39.40207,0,0,0,8.93452,13.491,38.49364,38.49364,0,0,0,13.26655,8.43877,45.41844,45.41844,0,0,0,16.15457,2.88857,32.07448,32.07448,0,0,0,7.76152-.9937,43.60155,43.60155,0,0,0,7.4905-2.7079,46.81735,46.81735,0,0,0,6.99421-4.01448,76.2402,76.2402,0,0,0,6.27234-5.01038l8.032,11.19074h5.05418v-81.314Zm-17.508,48.10318a23.57461,23.57461,0,0,1-4.46754,7.08372,21.8906,21.8906,0,0,1-6.5428,4.92005,17.6898,17.6898,0,0,1-8.03225,1.89486,22.46,22.46,0,0,1-8.032-1.44318,18.34551,18.34551,0,0,1-6.54308-4.28769,20.09724,20.09724,0,0,1-4.3772-6.94931,25.7649,25.7649,0,0,1-1.57924-9.47654,26.10575,26.10575,0,0,1,1.57924-9.47654,20.54073,20.54073,0,0,1,4.3772-6.94932,18.26386,18.26386,0,0,1,6.54308-4.24142,21.53949,21.53949,0,0,1,8.032-1.44318,18.23483,18.23483,0,0,1,8.03225,1.8508,22.02334,22.02334,0,0,1,6.5428,4.96191,22.83179,22.83179,0,0,1,4.46754,7.03965,21.80338,21.80338,0,0,1,0,16.51619Z"/>
          <path class="cls-1" d="M524.13118,438.80968a31.393,31.393,0,0,0-6.63341-9.92822,32.2645,32.2645,0,0,0-9.88223-6.63424,30.54808,30.54808,0,0,0-12.13844-2.43468,31.03294,31.03294,0,0,0-5.7306.49575,24.73477,24.73477,0,0,0-5.59536,1.62386,24.24892,24.24892,0,0,0-5.09907,2.9789,22.3509,22.3509,0,0,0-4.3772,4.37582,22.37408,22.37408,0,0,0-9.52116-7.35472,29.83112,29.83112,0,0,0-11.14584-2.11961,29.50578,29.50578,0,0,0-10.82966,1.9852,33.74518,33.74518,0,0,0-9.56632,5.6846l-5.59537-6.22662h-5.0539v81.44845h20.75706V450.99192a10.19736,10.19736,0,0,1,.81221-4.06075,11.03948,11.03948,0,0,1,2.211-3.33805,9.88911,9.88911,0,0,1,7.26494-3.02518,10.92654,10.92654,0,0,1,4.01613.769,11.358,11.358,0,0,1,3.38432,2.25621,11.03432,11.03432,0,0,1,2.21105,3.33805,10.19754,10.19754,0,0,1,.81248,4.06075v51.71225h20.75706V450.99192a10.19735,10.19735,0,0,1,.8122-4.06075,11.03932,11.03932,0,0,1,2.21105-3.33805,10.22386,10.22386,0,0,1,3.24909-2.25621,10.751,10.751,0,0,1,4.01585-.769,10.92764,10.92764,0,0,1,4.01613.769,10.61261,10.61261,0,0,1,3.33915,2.25621,10.39019,10.39019,0,0,1,2.25621,3.33805,10.19736,10.19736,0,0,1,.81221,4.06075v51.71225h20.667V450.99192A30.59208,30.59208,0,0,0,524.13118,438.80968Z"/>
        </g>
        <g>
          <path class="cls-1" d="M102.6703,644.16922a32.88425,32.88425,0,0,0-17.41791-17.41735,32.88631,32.88631,0,0,0-12.77025-2.52723h-21.84a10.34219,10.34219,0,0,1-4.2417-.85709,10.61371,10.61371,0,0,1-3.47465-2.30249,10.34871,10.34871,0,0,1-2.30139-3.51872,11.17846,11.17846,0,0,1-.85737-4.28769,10.95371,10.95371,0,0,1,.85737-4.24142,10.462,10.462,0,0,1,5.776-5.77494,10.34219,10.34219,0,0,1,4.2417-.85709H100.73V580.54355H50.64215a30.85061,30.85061,0,0,0-12.67991,2.61756,32.98658,32.98658,0,0,0-10.37881,7.03965,32.48389,32.48389,0,0,0-7.03938,10.37991,31.36961,31.36961,0,0,0-2.57184,12.678,31.76154,31.76154,0,0,0,2.57184,12.72646,32.245,32.245,0,0,0,7.03938,10.424,33.06021,33.06021,0,0,0,10.37881,7.03965,30.849,30.849,0,0,0,12.67991,2.61536h21.84a10.39617,10.39617,0,0,1,7.71636,3.15958,10.79625,10.79625,0,0,1,2.34655,3.42839,11.60158,11.60158,0,0,1,0,8.52911,11.52362,11.52362,0,0,1-2.34655,3.47465,10.42676,10.42676,0,0,1-3.42949,2.30249,10.5547,10.5547,0,0,1-4.28687.85709H24.01871v21.79318H72.48214a32.13655,32.13655,0,0,0,12.77025-2.57129,33.30724,33.30724,0,0,0,17.41791-17.41736,32.1295,32.1295,0,0,0,2.52695-12.68018A32.89973,32.89973,0,0,0,102.6703,644.16922Z"/>
          <path class="cls-1" d="M169.95075,663.25671a17.95613,17.95613,0,0,1-4.42236,3.836,21.4982,21.4982,0,0,1-5.27947,2.39062,20.82959,20.82959,0,0,1-5.82093.813,20.23275,20.23275,0,0,1-14.57533-6.00188,20.3053,20.3053,0,0,1-4.37692-6.5417,19.75767,19.75767,0,0,1-1.62441-7.98709,27.11831,27.11831,0,0,1,1.62441-9.56687,22.771,22.771,0,0,1,4.37692-7.49134,19.40491,19.40491,0,0,1,6.54308-4.91784,18.63527,18.63527,0,0,1,8.03225-1.76047,19.09954,19.09954,0,0,1,5.91127.94744,18.6236,18.6236,0,0,1,5.3698,2.66383,21.43834,21.43834,0,0,1,7.58085,10.01636l15.20686-15.29775a40.11678,40.11678,0,0,0-6.49791-8.21183,42.28339,42.28339,0,0,0-8.21265-6.04595,41.20255,41.20255,0,0,0-9.38593-3.74566,39.03513,39.03513,0,0,0-9.97229-1.30878,38.08014,38.08014,0,0,0-16.19974,3.51872,42.477,42.477,0,0,0-13.22138,9.52281,44.70363,44.70363,0,0,0-8.93452,14.21371,46.57069,46.57069,0,0,0-3.24909,17.46362,40.50306,40.50306,0,0,0,3.24909,16.15264,41.30987,41.30987,0,0,0,8.93452,13.13187,42.87658,42.87658,0,0,0,13.22138,8.89046A41.52729,41.52729,0,0,0,154.428,691.1443a42.99774,42.99774,0,0,0,9.9274-1.17437,38.65969,38.65969,0,0,0,9.16008-3.47466,39.4154,39.4154,0,0,0,8.16749-5.5502,41.10206,41.10206,0,0,0,6.63341-7.35473l-15.20714-15.29775A19.70021,19.70021,0,0,1,169.95075,663.25671Z"/>
          <path class="cls-1" d="M268.54719,628.91775a37.03768,37.03768,0,0,0-7.76124-11.64242,35.92125,35.92125,0,0,0-11.5518-7.85048,35.23438,35.23438,0,0,0-14.12393-2.8445,28.91963,28.91963,0,0,0-8.07742,1.17437,24.43575,24.43575,0,0,0-7.67118,3.97041V575.76231H198.60456V689.60858h20.75706V643.08739a15.2514,15.2514,0,0,1,1.21844-6.04816,15.35481,15.35481,0,0,1,8.34816-8.34843,15.92461,15.92461,0,0,1,6.182-1.21624,14.88784,14.88784,0,0,1,6.00134,1.21624,16.30064,16.30064,0,0,1,4.96383,3.34026,16.488,16.488,0,0,1,3.33915,5.00817,15.25123,15.25123,0,0,1,1.21845,6.04816h-.18068v46.52119H271.39V643.08739A35.63758,35.63758,0,0,0,268.54719,628.91775Z"/>
          <path class="cls-1" d="M361.59344,630.49754a41.6918,41.6918,0,0,0-8.88935-13.62762,39.32068,39.32068,0,0,0-13.22138-8.75385,42.75824,42.75824,0,0,0-16.19974-3.06924,39.98868,39.98868,0,0,0-16.19974,3.294,41.143,41.143,0,0,0-22.1559,22.65248,44.858,44.858,0,0,0-3.24882,17.19261,44.2701,44.2701,0,0,0,3.24882,17.01194,41.85085,41.85085,0,0,0,8.93452,13.58135,42.63273,42.63273,0,0,0,13.22138,9.07113,41.482,41.482,0,0,0,32.39948,0,41.60234,41.60234,0,0,0,13.22138-9.07113,42.47734,42.47734,0,0,0,8.88935-13.58135,44.29467,44.29467,0,0,0,3.294-17.01194A46.264,46.264,0,0,0,361.59344,630.49754Zm-19.26816,26.71322a20.23032,20.23032,0,0,1-4.46726,6.99338,20.033,20.033,0,0,1-14.57505,6.09222,18.63268,18.63268,0,0,1-8.03226-1.7142,19.89053,19.89053,0,0,1-6.5428-4.649,21.85616,21.85616,0,0,1-4.37719-6.99338,23.41078,23.41078,0,0,1-1.62441-8.75385,24.63206,24.63206,0,0,1,1.62441-9.11519,21.39561,21.39561,0,0,1,4.37719-6.99559,18.789,18.789,0,0,1,6.5428-4.46615,21.09448,21.09448,0,0,1,16.01934,0,18.96717,18.96717,0,0,1,6.588,4.46615,21.60782,21.60782,0,0,1,4.46726,6.99559A24.62639,24.62639,0,0,1,343.95,648.1859,24.15423,24.15423,0,0,1,342.32528,657.21076Z"/>
          <path class="cls-1" d="M451.79683,630.49754a41.68732,41.68732,0,0,0-8.88935-13.62762,39.32058,39.32058,0,0,0-13.22138-8.75385,42.75824,42.75824,0,0,0-16.19974-3.06924,39.98639,39.98639,0,0,0-16.19946,3.294,41.14229,41.14229,0,0,0-22.15618,22.65248,44.858,44.858,0,0,0-3.24881,17.19261,44.2701,44.2701,0,0,0,3.24881,17.01194,41.851,41.851,0,0,0,8.93452,13.58135,42.63069,42.63069,0,0,0,13.22166,9.07113,41.48133,41.48133,0,0,0,32.3992,0,41.60223,41.60223,0,0,0,13.22138-9.07113,42.47267,42.47267,0,0,0,8.88935-13.58135,44.28978,44.28978,0,0,0,3.29426-17.01194A46.259,46.259,0,0,0,451.79683,630.49754ZM432.529,657.21076a20.235,20.235,0,0,1-4.46754,6.99338,20.03291,20.03291,0,0,1-14.57505,6.09222,18.63056,18.63056,0,0,1-8.032-1.7142,19.89142,19.89142,0,0,1-6.54307-4.649,21.85618,21.85618,0,0,1-4.3772-6.99338,23.38857,23.38857,0,0,1-1.57924-8.75385,24.62909,24.62909,0,0,1,1.57924-9.11519,21.39563,21.39563,0,0,1,4.3772-6.99559,18.78992,18.78992,0,0,1,6.54307-4.46615,20.7306,20.7306,0,0,1,8.032-1.5798,20.50736,20.50736,0,0,1,7.98709,1.5798,18.96723,18.96723,0,0,1,6.588,4.46615,21.61316,21.61316,0,0,1,4.46754,6.99559,24.63206,24.63206,0,0,1,1.62441,9.11519A24.15978,24.15978,0,0,1,432.529,657.21076Z"/>
          <path class="cls-1" d="M466.55256,575.76231V689.60858h20.93773V575.76231Z"/>
        </g>
      </g>
      <g>
        <polygon class="cls-1" points="933.536 722.136 724.043 769.278 564.188 549.268 763.323 484.192 933.536 722.136"/>
        <polygon class="cls-2" points="933.536 722.136 1055.41 535.266 901.576 311.132 763.323 484.192 933.536 722.136"/>
        <polygon class="cls-3" points="564.188 549.268 706.258 378.527 901.576 311.132 763.323 484.192 564.188 549.268"/>
        <path class="cls-4" d="M908.40767,311.385l-4.66992-6.82-5.46,1.88-195.27,67.38-142.04,170.71-3.74024,4.5,4.85987,6.7,159.63037,219.7,209.46973-47.13,5.74023-1.29,3.27-5.01995,121.83008-186.81Zm-198.8999,71.84,175.92969-60.71L760.04781,479.475,580.6274,538.105Zm16.85986,379.89-153.29-210.97,188.12012-61.47,163.04,227.92Zm206.96-50.72L770.21773,484.375l131.02-164.01,147.56006,214.98Z"/>
        <path class="cls-4" d="M799.95,393.37755l32.50219-22.21741-5.29443-14.71436-35.08032,23.99036a30.70681,30.70681,0,0,0-7.7937.37219l-.02051.004,19.09424-24.70428-35.93213,13.65161-20.239,25.91461-.00635.00348c-3.7168,2.07513-7.4895,4.33691-11.25513,6.70764l-11.65845-7.06812-40.08886,31.29078,11.033,7.28607c-3.22828,3.06555-6.29419,6.16314-9.12061,9.23883l-.00415.00458-33.83618,16.569-15.83911,26.90588,31.54712-15.35492a11.15053,11.15053,0,0,0,.144,6.41022l.001.00244-28.76879,25.78808,21.62329,2.10315,26.64453-23.95849.00049-.00012c2.083-.4773,4.36157-1.10987,6.77783-1.90882,2.7395-.90576,5.57178-1.96338,8.48511-3.19977l-4.227,15.61915,44.13305-25.84015,3.79688-15.15967c6.47363-4.69678,12.79809-9.6742,18.66919-14.76746l21.10962-4.27508,31.4309-33.42774L795.21,403.42406A42.79778,42.79778,0,0,0,799.95,393.37755Zm-45.65064,39.25622A157.67077,157.67077,0,0,1,741.44367,442.962a138.82017,138.82017,0,0,1-24.907,14.63775c-2.10547.913-4.10987,1.70246-6.06934,2.35761-17.72949,5.92743-21.40625-2.17914-8.46558-17.925,12.85523-15.64209,37.35523-33.08063,54.99952-39.165,17.25464-5.95007,21.88891,1.00916,10.51318,15.827-.3.454-.7251.98022-1.11792,1.46594A107.6534,107.6534,0,0,1,754.29938,432.63377Z"/>
        <path class="cls-4" d="M853.98806,639.8993c-7.02977-7.70535-17.40561-11.874-24.98431-10.546,3.15277-7.35452-.34607-18.21-9.64907-27.20052a44.28771,44.28771,0,0,0-20.011-11.30411c-5.15766-1.23164-9.85453-1.12951-13.65824.23-.97716-10.43742-8.96533-22.554-21.285-30.65439-.20254-.13318-.40714-.25762-.61043-.38762,1.24915-3.25858.90109-7.31213-1.0336-11.58015a31.48186,31.48186,0,0,0-11.11762-12.69949c-4.96915-3.34987-10.35346-5.13487-15.15413-5.03054-4.78537.10319-8.41164,2.07158-10.2218,5.53427-.02566.04913-.044.10146-.06561.15242-9.97438-6.41791-21.29676-9.13949-29.85825-6.34164-9.65851,3.15636-13.15441,12.47724-10.06184,23.16228-10.56277-8.27183-23.4703-12.20413-32.83672-9.14323-8.16684,2.66889-11.66656,10.01837-10.26809,18.85374-.06877-.02045-.13733-.04333-.20639-.06065-4.85383-1.21512-9.06481-.63423-11.85924,1.6301-2.78495,2.25544-3.83153,5.91163-2.95574,10.29414.87382,4.37352,3.55929,8.95566,7.56415,12.91183a31.87836,31.87836,0,0,0,12.01513,7.57548c.02674.17377.04666.3447.0773.52,1.85482,10.61544,10.53392,21.72306,21.44636,28.71274a11.6412,11.6412,0,0,0-8.13931,5.80989c-2.207,4.122-1.89309,9.6659.87316,15.61532,4.43428,9.53859,14.21373,17.8871,24.11087,21.34061-5.888,2.202-7.35829,9.014-3.05439,16.74053,4.8681,8.7388,15.42056,15.58433,24.02023,15.719,2.40606,6.994,7.56873,14.02991,14.57513,19.85343,7.07381,5.87937,15.20527,9.842,22.91685,11.15617a26.56369,26.56369,0,0,0,10.34539-.07963,15.0486,15.0486,0,0,0,7.6982-4.19056,1.60169,1.60169,0,0,0,.1784-.22747c8.96463,5.33784,18.87223,7.87712,26.72,6.11115,9.85519-2.21768,13.76648-10.61041,10.96683-20.80548,10.63125,8.40718,24.00444,12.936,34.164,10.64985,8.21729-1.84911,12.53235-7.74735,12.50311-15.38987.14517.03705.29048.06886.43565.093a29.9664,29.9664,0,0,0,11.54467-.12937,17.45784,17.45784,0,0,0,8.35636-4.33311c4.46208-4.304,5.718-10.82055,3.51079-18.34717-2.26617-7.72771-7.86746-15.30334-15.08379-21.30279a9.7024,9.7024,0,0,0,4.62228-9.23564C860.317,649.15405,857.99766,644.29364,853.98806,639.8993Zm-53.459-42.04457a30.87929,30.87929,0,0,1,13.90479,7.87006c7.64275,7.38982,9.65838,16.58576,5.0729,21.44884-7.32547-10.04-19.25958-18.21478-31.17121-20.749a23.77257,23.77257,0,0,0-4.71072-4.60743,1.87282,1.87282,0,0,0,.23876-.34829,15.76745,15.76745,0,0,0,.89091-2.03509,3.67947,3.67947,0,0,0,3.55318-.02779C791.25849,597.22241,795.59625,596.66806,800.5291,597.85473Zm-66.80877-56.5483c1.08429-2.05412,3.24685-3.217,6.09636-3.2723a16.00944,16.00944,0,0,1,8.9978,3.00117,18.73255,18.73255,0,0,1,6.59493,7.53307c1.23143,2.71059,1.37587,5.27186.44683,7.27423a39.51193,39.51193,0,0,0-14.12319-3.27293,4.31187,4.31187,0,0,0-.88814-2.346,52.69561,52.69561,0,0,0-7.54641-8.38415A1.90259,1.90259,0,0,0,733.72033,541.30643Zm-98.27875,35.35978c-.51718-2.61017.113-4.78361,1.77725-6.12026,1.66832-1.33855,4.17431-1.67791,7.05928-.95027a4.02576,4.02576,0,0,0,.83057.121,42.33,42.33,0,0,0,4.94279,8.77053,6.76466,6.76466,0,0,0,2.08743,1.86789,14.18476,14.18476,0,0,0-4.49119,8.67806,18.694,18.694,0,0,1-7.70179-4.66911A15.50392,15.50392,0,0,1,635.44158,576.66621Zm33.23814,69.48792c-1.92653-4.15315-2.13671-8.0195-.58647-10.88848,1.555-2.87818,4.69669-4.41009,8.85078-4.3086a1.89112,1.89112,0,0,0,2.13322-1.53786c.929.335,1.86362.64089,2.803.90723a4.59762,4.59762,0,0,0,.53251.11766,16.14429,16.14429,0,0,0,2.34491,5.00729c-4.252,6.75765-2.23781,17.04225,4.546,26.55368C681.232,660.75174,672.3361,654.0358,668.67972,646.15413ZM784.68076,725.71c-9.33273,2.13181-22.59889-3.881-30.78874-13.59943a6.10774,6.10774,0,0,0,1.7019-4.2397c.08884-2.7985-1.22091-6.01737-3.689-9.05986-1.45991-1.80005-3.89567-2.81264-5.40742-2.2597-1.5238.55-1.5773,2.4499-.12136,4.24465a6.1454,6.1454,0,0,1,1.57942,3.86915,2.539,2.539,0,0,1-1.76136,2.46068,5.76941,5.76941,0,0,1-4.05815-.38434,10.43393,10.43393,0,0,1-3.98038-2.99567c-1.45051-1.78749-3.8668-2.79915-5.3545-2.25093-1.50372.54278-1.54831,2.427-.10142,4.20972a24.37392,24.37392,0,0,0,9.2737,6.987,16.34564,16.34564,0,0,0,6.43919,1.40931,55.0598,55.0598,0,0,0,7.184,7.11141c-2.92277,2.858-7.599,3.90846-13.22919,2.96024a37.58326,37.58326,0,0,1-17.23258-8.36915c-5.317-4.41529-9.22309-9.76119-11.00619-15.06448-1.78681-5.3151-1.23247-9.96528,1.57259-13.096.967-1.0793.2601-3.191-1.57962-4.71455-1.83865-1.523-4.10921-1.87793-5.072-.79518a14.66164,14.66164,0,0,0-3.37948,11.0907,4.02067,4.02067,0,0,0-1.32969-.18119c-5.21747.257-11.89436-3.93431-14.90644-9.3491-3.01529-5.42143-1.256-10.07933,3.95617-10.37778,1.78032-.10261,2.38974-1.69484,1.356-3.55843a5.75779,5.75779,0,0,0-.54483-.80178c.09627.00483.1936.01443.28966.01811a2.8588,2.8588,0,0,0,.75022-.068c1.094,1.07016,2.24662,2.11707,3.46748,3.12822,11.03751,9.14124,24.1247,13.03593,33.31213,10.7107a16.58225,16.58225,0,0,0,4.55428-1.88135c4.75005,4.4595,11.24783,6.9635,15.953,5.79171,1.65356-.41181,1.91211-2.24523.57512-4.0954-1.33727-1.85054-3.76083-3.01231-5.41144-2.59543-2.28485.57706-5.566-.88029-7.61947-3.297a5.04968,5.04968,0,0,0-1.53175-2.685c-.58166-1.93568.08953-3.57086,1.90736-4.0396,1.6462-.42448,1.89677-2.271.5573-4.12456-1.33974-1.854-3.75934-3.00822-5.40258-2.57864-4.63043,1.21047-6.06269,5.66688-3.972,10.728-6.45229,5.07488-19.14572,2.65069-29.461-5.88546-9.895-8.18838-14.38819-19.34246-11.07287-26.38328a21.58467,21.58467,0,0,0,5.74851,2.77383,12.47409,12.47409,0,0,0,6.823.357,7.2538,7.2538,0,0,0,1.98631-.86594c1.29339-.82284,1.00659-2.87816-.64188-4.59-1.64835-1.71109-4.02573-2.423-5.31989-1.59947-1.92169,1.23406-5.47873.16236-7.9315-2.38518a7.43617,7.43617,0,0,1-2.13148-3.92426,2.82023,2.82023,0,0,1,1.14773-2.94721c1.28178-.83381.98689-2.89664-.65992-4.60675-1.64669-1.70937-4.01459-2.41273-5.29587-1.57649a5.875,5.875,0,0,0-2.118,2.41266,6.16277,6.16277,0,0,0-1.91751-.95343c-12.28376-3.46132-23.73825-15.065-25.61915-25.94287-1.7803-10.29356,5.612-16.41246,16.80927-14.30275,3.18225,5.3348,9.3794,9.765,15.22492,10.51548a3.10711,3.10711,0,0,0,1.28135-.07879c1.15475-.345,1.67484-1.46894,1.18814-2.92166a6.36434,6.36434,0,0,0-4.79663-3.92986,9.5277,9.5277,0,0,1-7.16864-5.8727c-.96584-2.86621.67974-4.90247,3.67433-4.53249,2.00874.24551,3.11324-1.11518,2.46707-3.04278a6.34551,6.34551,0,0,0-4.81-3.93461c-5.60351-.67568-9.1695,2.25765-9.19741,6.8917-5.14581-.91814-9.77481-.55106-13.51027,1.05178a5.37342,5.37342,0,0,0-.56875-.98405c-8.07693-11.15935-6.951-22.7356,2.59495-25.81792,9.63119-3.10987,24.19763,3.58162,32.384,14.92915l13.5278,18.7515a12.585,12.585,0,0,0-7.98255-.30332c-1.58285.55478-1.72244,2.51131-.314,4.3708,1.409,1.85952,3.85232,2.91879,5.42109,2.37224a5.84319,5.84319,0,0,1,4.16659.42428,10.18433,10.18433,0,0,1,3.9698,3.13619c2.10911,2.785,1.88264,5.71171-.49979,6.52234-1.59122.54185-1.73921,2.48577-.33273,4.34262,1.37774,1.81836,3.738,2.88274,5.33285,2.42181.03368-.00973.067-.01991.09977-.031a6.347,6.347,0,0,0,4.12334-3.87157l27.87866,38.6439c-3.59431-1.56446-7.25712-2.01129-10.06741-.959-1.55127.58137-1.62236,2.53305-.16088,4.35988,1.46166,1.8271,3.91054,2.84232,5.45953,2.26548,2.32585-.86213,6.00677.66285,8.19622,3.40058,2.18913,2.73732,2.0663,5.65811-.26934,6.50939-1.56043.56879-1.63929,2.5093-.1791,4.33451,1.395,1.744,3.69314,2.75549,5.25936,2.35059.07307-.01889.145-.04061.21444-.06586a6.17265,6.17265,0,0,0,4.15247-4.72284l29.72256,41.1998C796.51331,712.43884,794.778,723.40356,784.68076,725.71Zm67.57281-74.84136A5.76386,5.76386,0,0,1,849.049,656.635a1.91657,1.91657,0,0,0-.82588.76939,49.03009,49.03009,0,0,0-17.40875-6.443c-2.17254-.32558-3.45753.99022-2.87308,2.93687a6.59651,6.59651,0,0,0,4.98461,4.11714,39.40046,39.40046,0,0,1,18.64917,8.77424c5.69852,4.703,9.75907,10.41328,11.42468,16.06413,3.37449,11.44658-4.23745,19.04835-16.90909,17.2395a35.4773,35.4773,0,0,0-3.74468-8.2808,6.31475,6.31475,0,0,0,3.1552-3.82177c.79423-2.63877.09406-5.9021-1.97449-9.1862-1.22365-1.9432-3.74328-3.29381-5.62445-3.01664-1.86874.27439-2.40942,2.07142-1.18785,4.00863a4.91216,4.91216,0,0,1,.84971,3.92474,2.96207,2.96207,0,0,1-2.62012,2.04928,7.60606,7.60606,0,0,1-4.54492-1.018,10.34566,10.34566,0,0,1-3.81137-3.482c-1.21824-1.92971-3.71257-3.2725-5.56884-2.99949-1.859.26763-2.36894,2.053-1.15286,3.9773a24.16156,24.16156,0,0,0,8.8803,8.118,20.80443,20.80443,0,0,0,6.78477,2.34764c6.35333,10.56692,3.98855,20.46962-5.79717,22.70489-9.09113,2.07662-21.65367-3.14444-30.0622-11.95481a17.25552,17.25552,0,0,0,10.20015,2.24286c.08107-.0118.15879-.02693.2342-.04462,1.61851-.37969,2.00607-2.06443.83745-3.87975-1.22317-1.90037-3.6855-3.22046-5.49707-2.94775-2.701.40663-6.37909-1.56675-8.20443-4.39926-1.82651-2.83428-1.11742-5.47837,1.57284-5.89943,1.81074-.27177,2.28081-2.053,1.05453-3.95815-1.22667-1.9058-3.68738-3.21913-5.49336-2.93336-3.91491.62151-6.01957,3.26432-6.01427,6.76579l-41.84012-58.0374a15.76993,15.76993,0,0,0,9.25522,1.62592c.07959-.01427.15583-.03188.22975-.05206,1.58645-.433,1.93913-2.17353.758-4.00676-1.23631-1.91914-3.68228-3.20934-5.46057-2.88106a6.95333,6.95333,0,0,1-4.37961-.8923,10.19787,10.19787,0,0,1-3.77057-3.4078,5.24144,5.24144,0,0,1-.96437-3.93491,2.83558,2.83558,0,0,1,2.41145-2.16518c1.7752-.33313,2.20969-2.16916.97023-4.09319-1.23985-1.92463-3.6841-3.20792-5.45665-2.86631a6.62865,6.62865,0,0,0-5.60918,5.0758c-.05686.24423-.09783.49461-.13125.74769l-36.08346-50.0522c-8.20993-11.38819-6.88455-23.25042,3.04488-26.45659,10.01992-3.23539,25.01786,3.54571,33.34076,15.12993a6.56024,6.56024,0,0,0,.83314.945,16.63194,16.63194,0,0,0-10.49274,6.488,18.918,18.918,0,0,0-6.34518-2.08794c-3.50911-.44446-6.39435.42878-8.12511,2.457-1.02086,1.19682-.311,3.4382,1.585,5.00854,1.89607,1.57,4.26451,1.87646,5.29393.6849a3.78449,3.78449,0,0,1,3.48305-1.04122,9.02949,9.02949,0,0,1,4.4716,2.07089,8.74889,8.74889,0,0,1,2.831,3.97063,3.58337,3.58337,0,0,1-.47531,3.53356c-1.03526,1.18835-.33186,3.42717,1.57056,5.00282a5.09309,5.09309,0,0,0,4.36782,1.30842,2.0387,2.0387,0,0,0,.96385-.59853c3.05389-3.47487,1.82283-9.57261-2.58523-14.71017,5.04974-7.27532,17.86385-7.21489,29.65006.548,12.56972,8.27774,19.12267,22.11124,14.6,30.74213a2.42139,2.42139,0,0,0-.17347,1.61583,15.37025,15.37025,0,0,0-4.593-.56892c-1.97782.07872-2.78076,1.74169-1.79891,3.71988a6.40834,6.40834,0,0,0,5.35634,3.45382,8.1689,8.1689,0,0,1,4.57588,1.43746,9.738,9.738,0,0,1,3.45524,3.7405c1.46472,2.95688.241,5.43856-2.7202,5.53-1.98079.06385-2.78757,1.71047-1.81038,3.67925a6.44575,6.44575,0,0,0,5.35085,3.46027,10.83391,10.83391,0,0,0,2.54422-.362,6.8849,6.8849,0,0,0,4.5374-3.56034,8.10583,8.10583,0,0,0,.67253-4.73695c11.58237,3.24423,22.75354,13.26142,25.93363,23.81872,3.29434,10.93606-3.171,18.53268-14.48992,17.89014-4.91066-4.50886-11.60287-6.9671-16.46787-5.6953-1.71671.44877-2.0021,2.34609-.64011,4.23859,1.3617,1.89209,3.857,3.06637,5.5768,2.62292,1.905-.49122,4.45738.35075,6.48322,1.97053a6.44285,6.44285,0,0,0,2.28372,2.57522c1.56224,2.62039,1.00882,5.10726-1.38656,5.71224-1.72434.4355-2.018,2.31918-.65857,4.2081,1.35914,1.88853,3.85855,3.07064,5.58594,2.64045,4.94342-1.23113,6.55724-5.8826,4.37762-11.16827a25.01554,25.01554,0,0,0,5.8077-.71789c9.95914-2.52054,14.90639-11.37,11.38258-23.12737a33.57184,33.57184,0,0,0-1.451-3.89321,2.30681,2.30681,0,0,0,.66988-.31415c.06947-.04906.13212-.10295.20025-.15294a6.14,6.14,0,0,0,.63853.83347c1.66488,1.82538,4.24943,2.66656,5.77533,1.88219,4.487-2.31608,12.14294.17628,17.05093,5.55642A13.52718,13.52718,0,0,1,852.25357,650.86863Z"/>
        <g>
          <path class="cls-4" d="M961.98761,511.16142c-.12695-1.55011-.13159-1.61139-6.03173-19.74921-4.2107-12.94348-10.552-32.43933-11.39038-36.26159l-.10035-.463c-2.12915-11.98254-6.395-22.84869-12.35522-31.48681-18.32227-26.55347-48.82471-26.18646-68.65308,2.16058-20.76733,29.68909-21.80005,78.17627-1.56006,106.55091,6.43409,9.02,14.46534,15.07525,23.18042,17.5202.16236.05682.44483.14953.843.26208,2.85327,1.09748,16.74585,9.32489,25.87207,14.7287,13.501,7.99549,13.54273,7.99658,14.61646,8.01416l2.04883.0354,33.77612-58.31738ZM936.949,538.68815c-.81714-1.52459.404-6.35229,1.48511-10.61486,1.69848-6.69489,3.7959-14.96442.31079-19.95527-3.49146-4.99957-8.68408-1.13647-12.89282,1.99451-2.75928,2.0539-5.90381,4.3935-6.87476,3.01068-.971-1.38336.34546-6.33264,1.502-10.678,1.76538-6.63641,3.9458-14.83331.43116-19.86639-3.52027-5.04114-8.822-1.2879-13.12012,1.75336-2.81738,1.99566-6.02881,4.26812-7.00757,2.8739-.98-1.39563.38818-6.3,1.58887-10.60822,1.83374-6.57519,4.09887-14.69726.55542-19.77166-1.10327-1.58008-3.00073-1.33063-4.24048.56292a6.12,6.12,0,0,0-.24292,6.31708c.97388,1.39179-.39307,6.23731-1.60449,10.53424-1.87085,6.63233-4.21753,14.95117-.60279,20.08881,3.60865,5.12921,9.0459,1.23224,13.377-1.87146,2.80249-2.00678,5.96142-4.271,6.928-2.89.96557,1.37976-.35059,6.27161-1.51685,10.60657-1.80225,6.69348-4.06055,15.08777-.47656,20.18213,3.57837,5.086,8.904,1.0766,13.145-2.11578,2.74389-2.06708,5.83716-4.39588,6.79516-3.0268.95679,1.36713-.30981,6.3006-1.43188,10.67371-1.72022,6.702-3.867,15.08978-.42578,20.15423l-6.8689,11.69635c-2.4978-1.4533-6.53735-3.876-10.25488-6.10437-13.80054-8.27288-23.90918-14.28064-26.8584-15.363l-.22925-.07416c-.32544-.09094-.51953-.15869-.55249-.17053l-.28076-.0951c-7.13013-2.02966-13.70191-7.01843-18.968-14.4248-16.47949-23.17658-15.76758-62.76489,1.09619-87.21967,16.23535-23.54315,41.436-24.09191,56.6211-2.14477a65.96994,65.96994,0,0,1,10.1914,25.93646c.08008.50385.18116.94354.26612,1.31006.97485,4.404,5.72583,19.1651,11.85156,38.05194,1.6709,5.152,3.38135,10.42517,4.44141,13.77112Z"/>
          <path class="cls-4" d="M967.10285,519.34147h0c-1.167-1.679-3.00733-1.49078-4.113.42615l-30.6958,53.225a7.00464,7.00464,0,0,0,.0542,6.91247c1.22852,1.73652,3.19141,1.44916,4.38159-.63531l30.4978-53.41119A6.664,6.664,0,0,0,967.10285,519.34147Z"/>
          <path class="cls-4" d="M971.73005,533.422c-1.16748-1.67761-3.00391-1.46985-4.1045.47l-25.53491,45.00794a7.03569,7.03569,0,0,0,.07544,6.89209c1.21973,1.7265,3.15918,1.43225,4.32935-.65088l25.36938-45.16339A6.74846,6.74846,0,0,0,971.73005,533.422Z"/>
          <path class="cls-4" d="M982.106,550.855l-5.1665-7.4215c-1.16553-1.67432-2.99439-1.45289-4.08692.50048l-23.67407,42.32166a7.07819,7.07819,0,0,0,.09033,6.89081l5.38746,7.6286c5.35058,7.57605,13.73754,6.15814,18.68676-3.04212l9.45752-17.58087C987.56745,571.29075,987.23737,558.22606,982.106,550.855Z"/>
        </g>
      </g>
    </g>
  </g>
</svg>
